<?xml version="1.0" encoding="UTF-8"?>
<svg version="1.1" xmlns="http://www.w3.org/2000/svg" width="72" height="72">
<path d="M0 0 C23.76 0 47.52 0 72 0 C72 23.76 72 47.52 72 72 C48.24 72 24.48 72 0 72 C0 48.24 0 24.48 0 0 Z " fill="#C2E3DE" transform="translate(0,0)"/>
<path d="M0 0 C5.94232103 1.08913509 10.90928279 3.73350154 15.1640625 7.98828125 C17.31321266 11.57019819 18.6640625 14.27619205 18.6640625 18.48828125 C19.6540625 18.81828125 20.6440625 19.14828125 21.6640625 19.48828125 C22.02832963 25.9236672 22.02832963 25.9236672 20.4140625 28.42578125 C18.6640625 29.48828125 18.6640625 29.48828125 14.6640625 29.48828125 C14.71626953 30.70064453 14.71626953 30.70064453 14.76953125 31.9375 C14.79660156 33.00613281 14.82367188 34.07476562 14.8515625 35.17578125 C14.90376953 36.75939453 14.90376953 36.75939453 14.95703125 38.375 C14.63072865 41.84250893 13.65436375 43.67260573 11.6640625 46.48828125 C8.6940625 45.99328125 8.6940625 45.99328125 5.6640625 45.48828125 C5.1690625 41.03328125 5.1690625 41.03328125 4.6640625 36.48828125 C4.9940625 36.48828125 5.3240625 36.48828125 5.6640625 36.48828125 C5.6640625 38.13828125 5.6640625 39.78828125 5.6640625 41.48828125 C8.6340625 40.99328125 8.6340625 40.99328125 11.6640625 40.48828125 C11.9940625 39.49828125 12.3240625 38.50828125 12.6640625 37.48828125 C11.8596875 37.50890625 11.0553125 37.52953125 10.2265625 37.55078125 C7.6640625 37.48828125 7.6640625 37.48828125 6.6640625 36.48828125 C6.62325467 34.48869761 6.62151894 32.48782871 6.6640625 30.48828125 C8.3140625 30.15828125 9.9640625 29.82828125 11.6640625 29.48828125 C11.6640625 28.82828125 11.6640625 28.16828125 11.6640625 27.48828125 C7.3740625 28.14828125 3.0840625 28.80828125 -1.3359375 29.48828125 C-0.6759375 30.14828125 -0.0159375 30.80828125 0.6640625 31.48828125 C0.9765625 33.98828125 0.9765625 33.98828125 0.6640625 36.48828125 C-3.00940521 38.93725972 -4.99950149 38.80365841 -9.3359375 38.48828125 C-11.3359375 36.48828125 -11.3359375 36.48828125 -11.5859375 33.98828125 C-11.3359375 31.48828125 -11.3359375 31.48828125 -9.3359375 29.48828125 C-10.25117187 29.28332031 -11.16640625 29.07835938 -12.109375 28.8671875 C-13.89214844 28.46306641 -13.89214844 28.46306641 -15.7109375 28.05078125 C-16.89429687 27.78394531 -18.07765625 27.51710938 -19.296875 27.2421875 C-22.3359375 26.48828125 -22.3359375 26.48828125 -24.3359375 25.48828125 C-24.3359375 26.14828125 -24.3359375 26.80828125 -24.3359375 27.48828125 C-23.7790625 27.75640625 -23.2221875 28.02453125 -22.6484375 28.30078125 C-20.13881227 29.58950772 -17.74259514 31.01754603 -15.3359375 32.48828125 C-16.62026114 35.05692853 -17.70228501 35.43482025 -20.3359375 36.48828125 C-21.6559375 36.48828125 -22.9759375 36.48828125 -24.3359375 36.48828125 C-24.3359375 37.14828125 -24.3359375 37.80828125 -24.3359375 38.48828125 C-25.3259375 38.48828125 -26.3159375 38.48828125 -27.3359375 38.48828125 C-27.6659375 41.12828125 -27.9959375 43.76828125 -28.3359375 46.48828125 C-25.6959375 46.48828125 -23.0559375 46.48828125 -20.3359375 46.48828125 C-20.6659375 44.50828125 -20.9959375 42.52828125 -21.3359375 40.48828125 C-17.02824519 37.41135817 -17.02824519 37.41135817 -13.5234375 37.80078125 C-12.8015625 38.02765625 -12.0796875 38.25453125 -11.3359375 38.48828125 C-11.0059375 40.79828125 -10.6759375 43.10828125 -10.3359375 45.48828125 C-11.6559375 46.14828125 -12.9759375 46.80828125 -14.3359375 47.48828125 C-7.67355361 48.25104693 -7.67355361 48.25104693 -1.4921875 46.375 C0.02080142 44.87924297 0.02080142 44.87924297 1.6640625 42.48828125 C2.6540625 42.81828125 3.6440625 43.14828125 4.6640625 43.48828125 C4.9940625 44.47828125 5.3240625 45.46828125 5.6640625 46.48828125 C6.6540625 46.81828125 7.6440625 47.14828125 8.6640625 47.48828125 C8.69099825 49.61321266 8.71042878 51.73824037 8.7265625 53.86328125 C8.73816406 55.04664063 8.74976563 56.23 8.76171875 57.44921875 C8.6640625 60.48828125 8.6640625 60.48828125 7.6640625 62.48828125 C6.0140625 62.48828125 4.3640625 62.48828125 2.6640625 62.48828125 C2.6640625 61.49828125 2.6640625 60.50828125 2.6640625 59.48828125 C4.3140625 59.48828125 5.9640625 59.48828125 7.6640625 59.48828125 C7.6640625 56.18828125 7.6640625 52.88828125 7.6640625 49.48828125 C6.6740625 49.81828125 5.6840625 50.14828125 4.6640625 50.48828125 C5.3240625 51.47828125 5.9840625 52.46828125 6.6640625 53.48828125 C6.6640625 54.47828125 6.6640625 55.46828125 6.6640625 56.48828125 C3.56188629 58.32660789 1.26997571 58.96274351 -2.3359375 58.48828125 C-4.3359375 55.48828125 -4.3359375 55.48828125 -4.3359375 52.48828125 C-3.0159375 51.82828125 -1.6959375 51.16828125 -0.3359375 50.48828125 C-3.6359375 50.15828125 -6.9359375 49.82828125 -10.3359375 49.48828125 C-8.8509375 54.93328125 -8.8509375 54.93328125 -7.3359375 60.48828125 C-8.9859375 60.48828125 -10.6359375 60.48828125 -12.3359375 60.48828125 C-12.3359375 61.14828125 -12.3359375 61.80828125 -12.3359375 62.48828125 C-13.96012495 62.56919096 -15.58545495 62.6274312 -17.2109375 62.67578125 C-18.11585937 62.71058594 -19.02078125 62.74539062 -19.953125 62.78125 C-21.13261719 62.63623047 -21.13261719 62.63623047 -22.3359375 62.48828125 C-24.79416922 58.80093367 -25.34836366 55.79128154 -26.3359375 51.48828125 C-30.6259375 51.15828125 -34.9159375 50.82828125 -39.3359375 50.48828125 C-42.1263598 43.51222551 -42.50935626 36.92145113 -39.8359375 29.80078125 C-39.3409375 28.70765625 -38.8459375 27.61453125 -38.3359375 26.48828125 C-37.2428125 26.52953125 -36.1496875 26.57078125 -35.0234375 26.61328125 C-31.24701521 26.80902791 -31.24701521 26.80902791 -28.3359375 24.48828125 C-28.65691406 23.91851563 -28.97789063 23.34875 -29.30859375 22.76171875 C-31.00551279 19.00655951 -30.96996382 15.52236082 -30.3359375 11.48828125 C-28.11111797 6.95918436 -28.11111797 6.95918436 -25.3359375 5.48828125 C-22.24977686 5.28109844 -19.27826175 5.43266098 -16.19140625 5.609375 C-13.07604256 5.47725971 -12.3180297 5.16782361 -10.2109375 2.98828125 C-6.61535841 -0.13830927 -4.63886341 -0.24525713 0 0 Z " fill="#95958C" transform="translate(45.3359375,4.51171875)"/>
<path d="M0 0 C23.76 0 47.52 0 72 0 C72 23.76 72 47.52 72 72 C48.24 72 24.48 72 0 72 C0 65.07 0 58.14 0 51 C0.66 51.99 1.32 52.98 2 54 C4.2327942 56.6081625 6.23711599 57.63057066 9.4375 58.8125 C14.02575979 60.74793857 15.78507887 62.57015773 18 67 C18 67.66 18 68.32 18 69 C22.31344164 70.05353277 26.51886267 70.16115442 30.93359375 70.16796875 C32.06692894 70.17296135 32.06692894 70.17296135 33.22315979 70.17805481 C34.8158406 70.18310083 36.40853191 70.18546386 38.0012207 70.18530273 C40.42612244 70.18748974 42.85056921 70.20567122 45.27539062 70.22460938 C46.82812346 70.22754376 48.38085843 70.22952826 49.93359375 70.23046875 C51.01198769 70.24124702 51.01198769 70.24124702 52.11216736 70.25224304 C56.43444735 70.23280527 60.05121715 69.81065956 64 68 C64.495 66.515 64.495 66.515 65 65 C64.01 65 63.02 65 62 65 C61.94068717 59.99795131 61.94983098 55.00185115 62 50 C61.98839844 48.70642578 61.98839844 48.70642578 61.9765625 47.38671875 C62.21856024 41.36977487 64.91839623 37.61089271 68.50390625 32.87109375 C70.43084193 29.17318846 70.63166696 26.04354117 70 22 C67.18771334 14.30756883 63.42362462 8.08549398 56.125 4.125 C48.05802901 0.82718167 41.52869069 1.08430961 33.49609375 4.1484375 C29.4348489 5.53396391 25.22438496 6.25038984 21.015625 7.05859375 C16.29502893 8.53225133 13.71388602 10.92917096 11 15 C10.57114545 16.53280916 10.17883678 18.07605923 9.8125 19.625 C8.17206838 25.40475906 5.09468301 29.6533365 1 34 C0.67 34 0.34 34 0 34 C0 22.78 0 11.56 0 0 Z " fill="#FCFDFD" transform="translate(0,0)"/>
<path d="M0 0 C1.68609375 -0.04253906 1.68609375 -0.04253906 3.40625 -0.0859375 C7.10361453 0.46493247 8.29096468 1.41139321 10.5 4.375 C10.25 6.625 10.25 6.625 9.5 8.375 C8.51 8.045 7.52 7.715 6.5 7.375 C8.48 9.025 10.46 10.675 12.5 12.375 C12.5 11.715 12.5 11.055 12.5 10.375 C13.16 10.375 13.82 10.375 14.5 10.375 C14.5 12.355 14.5 14.335 14.5 16.375 C15.28375 16.33375 16.0675 16.2925 16.875 16.25 C19.5 16.375 19.5 16.375 21.5 18.375 C20.94444444 22.93055556 20.94444444 22.93055556 19.5 24.375 C17.30949979 24.28482004 15.121534 24.12833792 12.9375 23.9375 C11.73996094 23.83566406 10.54242188 23.73382812 9.30859375 23.62890625 C8.38175781 23.54511719 7.45492187 23.46132813 6.5 23.375 C6.20480469 22.41335937 5.90960938 21.45171875 5.60546875 20.4609375 C4.80118337 17.37856052 4.80118337 17.37856052 2.8125 16 C-1.64551679 14.7951306 -5.85181299 15.28090834 -10.375 15.9375 C-11.40625 16.081875 -12.4375 16.22625 -13.5 16.375 C-13.83 16.045 -14.16 15.715 -14.5 15.375 C-19.64131184 14.84686651 -19.64131184 14.84686651 -23.9375 17.375 C-24.453125 18.035 -24.96875 18.695 -25.5 19.375 C-27.0078125 18.15625 -27.0078125 18.15625 -28.5 16.375 C-28.6796875 14.21875 -28.6796875 14.21875 -28.375 11.875 C-28.28992188 11.1015625 -28.20484375 10.328125 -28.1171875 9.53125 C-27.36960076 6.91942798 -26.73868609 5.91959564 -24.5 4.375 C-21.96875 4.046875 -21.96875 4.046875 -19 4.125 C-17.41445313 4.16367188 -17.41445313 4.16367188 -15.796875 4.203125 C-11.01493792 4.4524203 -6.25929557 4.85035324 -1.5 5.375 C-1.5 4.715 -1.5 4.055 -1.5 3.375 C-4.8 3.705 -8.1 4.035 -11.5 4.375 C-9.21778469 -0.18943062 -4.61429964 0.05291628 0 0 Z " fill="#EBC6B9" transform="translate(44.5,7.625)"/>
<path d="M0 0 C0.87527344 -0.01417969 1.75054687 -0.02835937 2.65234375 -0.04296875 C5.0625 0.1875 5.0625 0.1875 8.0625 2.1875 C5.32382559 4.92617441 3.63057809 4.4171878 -0.1875 4.5 C-5.59226328 4.73899229 -5.59226328 4.73899229 -10 7.75 C-13.54526306 10.69181403 -14.60132196 10.39686937 -19.0625 10.1875 C-23.70602899 9.90871506 -23.70602899 9.90871506 -27.6875 12.125 C-29.35213246 16.20334952 -29.60673383 19.83748011 -28.9375 24.1875 C-27.98399462 26.40387531 -27.98399462 26.40387531 -26.9375 28.1875 C-28.5 29.75 -28.5 29.75 -30.9375 31.1875 C-34.6875 30.875 -34.6875 30.875 -37.9375 30.1875 C-38.081875 31.13625 -38.22625 32.085 -38.375 33.0625 C-38.9375 36.1875 -38.9375 36.1875 -39.9375 38.1875 C-40.03407872 39.9770469 -40.06730468 41.77035534 -40.0625 43.5625 C-40.06507812 44.51898438 -40.06765625 45.47546875 -40.0703125 46.4609375 C-39.95301878 48.86890854 -39.62425951 50.88740068 -38.9375 53.1875 C-38.02226563 53.29707031 -37.10703125 53.40664063 -36.1640625 53.51953125 C-34.38128906 53.75736328 -34.38128906 53.75736328 -32.5625 54 C-31.37914062 54.15082031 -30.19578125 54.30164062 -28.9765625 54.45703125 C-25.9375 55.1875 -25.9375 55.1875 -23.9375 58.1875 C-22.75 61.75 -22.75 61.75 -21.9375 65.1875 C-22.2675 65.8475 -22.5975 66.5075 -22.9375 67.1875 C-27.25600989 65.69835866 -27.97582981 63.11084037 -29.9375 59.1875 C-32.47979606 57.25886161 -33.72095018 57.17847709 -36.9375 57.3125 C-39.9375 57.1875 -39.9375 57.1875 -42.25 55.375 C-46.44640681 49.9352134 -45.72622991 41.79325564 -45.27197266 35.18994141 C-44.6201184 31.28738037 -42.33562545 28.98478671 -39.671875 26.23046875 C-37.66607212 23.86777752 -37.1082088 22.0534554 -36.375 19.0625 C-35.05264658 13.97104343 -33.11793825 10.46753616 -28.9375 7.1875 C-26.03039344 5.70164554 -23.10894688 4.92656874 -19.9375 4.1875 C-18.81601562 3.92195312 -17.69453125 3.65640625 -16.5390625 3.3828125 C-14.24953254 2.85212675 -11.95667141 2.33553027 -9.66015625 1.8359375 C-2.01350332 0.01478343 -2.01350332 0.01478343 0 0 Z " fill="#CCEAE4" transform="translate(44.9375,0.8125)"/>
<path d="M0 0 C5.28 0.99 10.56 1.98 16 3 C15.01 4.485 15.01 4.485 14 6 C13.74969023 8.58380177 13.74969023 8.58380177 14 11 C15.16983444 12.39681568 15.16983444 12.39681568 18.4375 12.125 C21.84105584 12.2526281 21.84105584 12.2526281 24 11 C24.25069913 8.62570704 24.25069913 8.62570704 24 6 C23.01 5.01 22.02 4.02 21 3 C25.95 2.67 30.9 2.34 36 2 C36 2.66 36 3.32 36 4 C34.68 4.33 33.36 4.66 32 5 C32 6.98 32 8.96 32 11 C34.475 11.495 34.475 11.495 37 12 C36.67 13.32 36.34 14.64 36 16 C34.02 16 32.04 16 30 16 C30 17.32 30 18.64 30 20 C31.32 20.33 32.64 20.66 34 21 C34 25.29 34 29.58 34 34 C33.67 34 33.34 34 33 34 C33 30.04 33 26.08 33 22 C31.68 21.67 30.36 21.34 29 21 C28.505 19.515 28.505 19.515 28 18 C25.81821871 18.97803989 24.25266442 19.69527139 22.7109375 21.5546875 C20.29220618 23.59790802 18.55794075 23.36651562 15.4375 23.3125 C13.98150391 23.30669922 13.98150391 23.30669922 12.49609375 23.30078125 C10 23 10 23 8 21 C9.98 20.67 11.96 20.34 14 20 C13.34 17.69 12.68 15.38 12 13 C7.87026372 13.56739868 7.87026372 13.56739868 4 15 C4 16.98 4 18.96 4 21 C1.36 21 -1.28 21 -4 21 C-3.67 18.36 -3.34 15.72 -3 13 C-2.01 13 -1.02 13 0 13 C0 12.34 0 11.68 0 11 C2.64 10.01 5.28 9.02 8 8 C6.78934835 5.57869669 5.78126593 5.15341778 3.4375 3.875 C2.303125 3.25625 1.16875 2.6375 0 2 C0 1.34 0 0.68 0 0 Z " fill="#BED5D9" transform="translate(21,30)"/>
<path d="M0 0 C3.75 0.125 3.75 0.125 6.5 0.6875 C8.90493756 1.34640353 8.90493756 1.34640353 11.75 0.125 C16.78274337 -0.24779581 19.65672968 0.11524241 23.75 3.125 C24.75 4.125 24.75 4.125 24.8125 6.6875 C24.791875 7.491875 24.77125 8.29625 24.75 9.125 C26.73 9.125 28.71 9.125 30.75 9.125 C30.75 9.455 30.75 9.785 30.75 10.125 C26.46 10.785 22.17 11.445 17.75 12.125 C18.41 12.785 19.07 13.445 19.75 14.125 C20.0625 16.625 20.0625 16.625 19.75 19.125 C16.07653229 21.57397847 14.08643601 21.44037716 9.75 21.125 C7.75 19.125 7.75 19.125 7.5 16.625 C7.75 14.125 7.75 14.125 9.75 12.125 C8.85796875 11.94324219 7.9659375 11.76148438 7.046875 11.57421875 C5.87640625 11.32285156 4.7059375 11.07148437 3.5 10.8125 C2.33984375 10.56886719 1.1796875 10.32523438 -0.015625 10.07421875 C-3.10368022 9.16794167 -4.86523474 8.2323297 -7.25 6.125 C-3.72225025 0.14316347 -3.72225025 0.14316347 0 0 Z " fill="#B54C5A" transform="translate(26.25,21.875)"/>
<path d="M0 0 C3.96 0 7.92 0 12 0 C8 3 8 3 6 3 C6.66 4.65 7.32 6.3 8 8 C12.455 7.505 12.455 7.505 17 7 C16.01 4.69 15.02 2.38 14 0 C15.32 0 16.64 0 18 0 C18 3.3 18 6.6 18 10 C16.35 10 14.7 10 13 10 C13 10.99 13 11.98 13 13 C13.763125 12.938125 14.52625 12.87625 15.3125 12.8125 C18 13 18 13 19.8125 14.5 C20.4003125 15.2425 20.4003125 15.2425 21 16 C16.63265704 18.18367148 10.73413813 17.18584904 5.87915039 17.18530273 C3.70634134 17.18748111 1.53404677 17.20561751 -0.63867188 17.22460938 C-2.02603994 17.22754508 -3.4134104 17.22952869 -4.80078125 17.23046875 C-6.69050659 17.23663208 -6.69050659 17.23663208 -8.6184082 17.24291992 C-11.89454703 17.00757532 -14.09664592 16.49769084 -17 15 C-18.3359375 13.16015625 -18.3359375 13.16015625 -19.375 11.0625 C-21.89739252 6.62212212 -24.19191387 5.50841918 -29 4 C-29 3.67 -29 3.34 -29 3 C-22.65853659 3.48780488 -22.65853659 3.48780488 -19.75 5.75 C-17.94790945 8.06697357 -16.4984616 10.47986003 -15 13 C-14.34 13.33 -13.68 13.66 -13 14 C-12.67 13.34 -12.34 12.68 -12 12 C-8.7 12.33 -5.4 12.66 -2 13 C-2 12.34 -2 11.68 -2 11 C-0.68 10.67 0.64 10.34 2 10 C1.34 6.7 0.68 3.4 0 0 Z " fill="#C3D9D4" transform="translate(35,54)"/>
<path d="M0 0 C7.17408315 0.07204962 13.01285758 2.82535758 18.0625 7.875 C20.21165016 11.45691694 21.5625 14.1629108 21.5625 18.375 C22.5525 18.705 23.5425 19.035 24.5625 19.375 C24.92676713 25.81038595 24.92676713 25.81038595 23.3125 28.3125 C21.5625 29.375 21.5625 29.375 17.5625 29.375 C17.61470703 30.58736328 17.61470703 30.58736328 17.66796875 31.82421875 C17.69503906 32.89285156 17.72210938 33.96148437 17.75 35.0625 C17.80220703 36.64611328 17.80220703 36.64611328 17.85546875 38.26171875 C17.52916615 41.72922768 16.55280125 43.55932448 14.5625 46.375 C12.5825 46.045 10.6025 45.715 8.5625 45.375 C8.2325 42.405 7.9025 39.435 7.5625 36.375 C7.8925 36.375 8.2225 36.375 8.5625 36.375 C8.5625 38.025 8.5625 39.675 8.5625 41.375 C11.5325 40.88 11.5325 40.88 14.5625 40.375 C14.8925 39.385 15.2225 38.395 15.5625 37.375 C14.758125 37.395625 13.95375 37.41625 13.125 37.4375 C10.5625 37.375 10.5625 37.375 9.5625 36.375 C9.52169217 34.37541636 9.51995644 32.37454746 9.5625 30.375 C11.2125 30.045 12.8625 29.715 14.5625 29.375 C14.5625 28.715 14.5625 28.055 14.5625 27.375 C18.0275 26.88 18.0275 26.88 21.5625 26.375 C21.8925 24.725 22.2225 23.075 22.5625 21.375 C20.5825 20.715 18.6025 20.055 16.5625 19.375 C16.5625 17.395 16.5625 15.415 16.5625 13.375 C15.5725 14.86 15.5725 14.86 14.5625 16.375 C11.5925 14.065 8.6225 11.755 5.5625 9.375 C6.2225 9.045 6.8825 8.715 7.5625 8.375 C9.6875 9.3125 9.6875 9.3125 11.5625 10.375 C11.8925 9.385 12.2225 8.395 12.5625 7.375 C11.2425 6.715 9.9225 6.055 8.5625 5.375 C8.5625 4.715 8.5625 4.055 8.5625 3.375 C6.45801062 3.51609986 4.3539123 3.66304175 2.25 3.8125 C1.07824219 3.89371094 -0.09351563 3.97492187 -1.30078125 4.05859375 C-4.46340958 4.2617371 -4.46340958 4.2617371 -7.4375 5.375 C-5.34680246 1.05422509 -4.87794451 0.19785734 0 0 Z " fill="#ADA59E" transform="translate(42.4375,4.625)"/>
<path d="M0 0 C3.96 0.33 7.92 0.66 12 1 C11.67 2.32 11.34 3.64 11 5 C10.01 5.495 10.01 5.495 9 6 C8.34227572 9.02934491 8.34227572 9.02934491 8 12 C7.01 12.33 6.02 12.66 5 13 C5.99 15.97 6.98 18.94 8 22 C4.37 21.67 0.74 21.34 -3 21 C-5.12636326 12.49454695 -3.83650885 7.67301769 0 0 Z " fill="#E7E5C1" transform="translate(9,32)"/>
<path d="M0 0 C-0.75 1.9375 -0.75 1.9375 -2 4 C-4.94459501 5.05621343 -7.41393711 4.98251159 -10.5 4.75 C-13.93164607 4.73303964 -14.71763861 4.78650724 -17.5625 6.9375 C-19.47279903 11.0072675 -19.68143132 14.57069642 -19 19 C-18.04649462 21.21637531 -18.04649462 21.21637531 -17 23 C-18.5625 24.5625 -18.5625 24.5625 -21 26 C-24.75 25.6875 -24.75 25.6875 -28 25 C-28.12375 25.9075 -28.2475 26.815 -28.375 27.75 C-29 31 -29 31 -30 32.90625 C-31.12499618 35.26171076 -31.39637853 37.15895671 -31.625 39.75 C-31.69976563 40.54921875 -31.77453125 41.3484375 -31.8515625 42.171875 C-31.90054687 42.77515625 -31.94953125 43.3784375 -32 44 C-32.33 44 -32.66 44 -33 44 C-33.10883596 41.62374823 -33.18766696 39.25256024 -33.25 36.875 C-33.28351562 36.20984375 -33.31703125 35.5446875 -33.3515625 34.859375 C-33.45310967 29.68046935 -32.14501458 27.02561866 -29 23 C-26.24921044 19.00299639 -23.94899841 15.56661456 -23 10.75 C-22 7 -22 7 -20.125 4.625 C-16.05613795 2.50919174 -12.16484633 1.99092301 -7.64453125 1.39453125 C-4.70198651 0.95554008 -3.02618933 0 0 0 Z " fill="#F1F1F5" transform="translate(35,6)"/>
<path d="M0 0 C0.33 0.99 0.66 1.98 1 3 C3.64 3 6.28 3 9 3 C9 3.66 9 4.32 9 5 C8.31897217 4.97381592 7.63794434 4.94763184 6.9362793 4.9206543 C3.85358711 4.81678469 0.77126241 4.75170683 -2.3125 4.6875 C-3.38435547 4.64560547 -4.45621094 4.60371094 -5.56054688 4.56054688 C-7.10258789 4.53637695 -7.10258789 4.53637695 -8.67578125 4.51171875 C-10.0975769 4.47244263 -10.0975769 4.47244263 -11.5480957 4.43237305 C-14.22425954 4.77892751 -14.22425954 4.77892751 -15.80541992 7.34301758 C-17.25742104 10.57255532 -17.51141871 12.49312887 -17 16 C-15.06102121 18.67398476 -15.06102121 18.67398476 -13 21 C-13 21.99 -13 22.98 -13 24 C-12.01 24.33 -11.02 24.66 -10 25 C-13.15464799 26.05154933 -14.80737654 25.97975572 -18.0625 25.625 C-18.94035156 25.53476562 -19.81820313 25.44453125 -20.72265625 25.3515625 C-23 25 -23 25 -25 24 C-25.12375 24.556875 -25.2475 25.11375 -25.375 25.6875 C-26 28 -26 28 -27.03125 30.25 C-28.15370823 33.43633304 -28.19901615 35.94476496 -28.125 39.3125 C-28.10695313 40.38113281 -28.08890625 41.44976562 -28.0703125 42.55078125 C-28.04710937 43.35902344 -28.02390625 44.16726562 -28 45 C-27.37351562 44.98839844 -26.74703125 44.97679687 -26.1015625 44.96484375 C-25.28429687 44.95582031 -24.46703125 44.94679687 -23.625 44.9375 C-22.40683594 44.92009766 -22.40683594 44.92009766 -21.1640625 44.90234375 C-19 45 -19 45 -17 46 C-16.67 45.34 -16.34 44.68 -16 44 C-16 45.32 -16 46.64 -16 48 C-19.96 47.67 -23.92 47.34 -28 47 C-30.7904223 40.02394426 -31.17341876 33.43316988 -28.5 26.3125 C-28.005 25.219375 -27.51 24.12625 -27 23 C-25.906875 23.04125 -24.81375 23.0825 -23.6875 23.125 C-19.91107771 23.32074666 -19.91107771 23.32074666 -17 21 C-17.32097656 20.43023438 -17.64195313 19.86046875 -17.97265625 19.2734375 C-19.66957529 15.51827826 -19.63402632 12.03407957 -19 8 C-16.77851465 3.47769054 -16.77851465 3.47769054 -14 2 C-10.8128537 1.68170976 -7.83758315 1.74814428 -4.64453125 1.984375 C-3.33548828 1.99210938 -3.33548828 1.99210938 -2 2 C-1.34 1.34 -0.68 0.68 0 0 Z " fill="#B3A8A0" transform="translate(34,8)"/>
<path d="M0 0 C-0.61875 0.7425 -1.2375 1.485 -1.875 2.25 C-6.84712698 9.7696832 -6.24830596 20.39683864 -6.4609375 29.06640625 C-7 32 -7 32 -8.8046875 33.890625 C-11.90783066 35.4587614 -14.58112648 35.1972427 -18 35 C-16.02 34.505 -16.02 34.505 -14 34 C-12.61572185 29.39330385 -12.68044254 24.67352268 -12.4765625 19.8984375 C-12.31929687 18.94195312 -12.16203125 17.98546875 -12 17 C-11.01 16.34 -10.02 15.68 -9 15 C-7.9458482 11.83754459 -7.68724328 9.13051782 -7.4375 5.8125 C-7.35371094 4.72582031 -7.26992188 3.63914062 -7.18359375 2.51953125 C-7.12300781 1.68808594 -7.06242187 0.85664062 -7 0 C-3.98968256 -0.93423645 -3.13349732 -1.04449911 0 0 Z " fill="#EBEEF0" transform="translate(67,34)"/>
<path d="M0 0 C3.96 0 7.92 0 12 0 C8 3 8 3 6 3 C6.66 4.65 7.32 6.3 8 8 C12.455 7.505 12.455 7.505 17 7 C16.01 4.69 15.02 2.38 14 0 C15.32 0 16.64 0 18 0 C18 3.3 18 6.6 18 10 C16.35 10 14.7 10 13 10 C13 10.99 13 11.98 13 13 C8.05 12.67 3.1 12.34 -2 12 C-0.68 11.34 0.64 10.68 2 10 C1.34 6.7 0.68 3.4 0 0 Z " fill="#BDD7DA" transform="translate(35,54)"/>
<path d="M0 0 C3.375 0.3125 3.375 0.3125 7 1 C7.66 1.99 8.32 2.98 9 4 C5.55930376 6.29379749 4.27709699 7 0 7 C0 7.66 0 8.32 0 9 C-0.99 9 -1.98 9 -3 9 C-3.33 11.64 -3.66 14.28 -4 17 C-1.03 16.67 1.94 16.34 5 16 C5 16.99 5 17.98 5 19 C3.02 19 1.04 19 -1 19 C-0.2575 20.0828125 -0.2575 20.0828125 0.5 21.1875 C2.07919285 24.14848659 2.28178312 25.71253029 2 29 C-1.07106515 27.46446743 -1.67187576 25.07883346 -3 22 C-3 20.68 -3 19.36 -3 18 C-3.99 17.67 -4.98 17.34 -6 17 C-6.33 15.02 -6.66 13.04 -7 11 C-6.34 10.67 -5.68 10.34 -5 10 C-4.53476937 8.10466658 -4.53476937 8.10466658 -4.375 5.9375 C-4.25125 4.638125 -4.1275 3.33875 -4 2 C-3.01 2.33 -2.02 2.66 -1 3 C-0.67 2.01 -0.34 1.02 0 0 Z " fill="#849A92" transform="translate(21,34)"/>
<path d="M0 0 C2.50828536 1.90354807 3.00135005 3.00579726 3.73046875 6.13671875 C3.88128906 7.30847656 4.03210938 8.48023438 4.1875 9.6875 C4.34605469 10.86699219 4.50460938 12.04648437 4.66796875 13.26171875 C4.77753906 14.16535156 4.88710937 15.06898437 5 16 C6.37285156 16.16435547 6.37285156 16.16435547 7.7734375 16.33203125 C9.55621094 16.56986328 9.55621094 16.56986328 11.375 16.8125 C13.15003906 17.03873047 13.15003906 17.03873047 14.9609375 17.26953125 C18 18 18 18 20 21 C21.1875 24.5625 21.1875 24.5625 22 28 C21.67 28.66 21.34 29.32 21 30 C16.68149011 28.51085866 15.96167019 25.92334037 14 22 C11.45770394 20.07136161 10.21654982 19.99097709 7 20.125 C4 20 4 20 1.6875 18.3125 C-1.3493664 14.15086827 -1.10188574 10.16183519 -0.5625 5.1875 C-0.40974609 3.72376953 -0.40974609 3.72376953 -0.25390625 2.23046875 C-0.12822266 1.12638672 -0.12822266 1.12638672 0 0 Z " fill="#E7EAEC" transform="translate(1,38)"/>
<path d="M0 0 C6.73489151 3.07462439 10.14388997 9.35827667 13 16 C13.1953125 19.3828125 13.1953125 19.3828125 13 22 C11.84935451 20.27403177 10.70169026 18.54605039 9.5625 16.8125 C9.046875 16.214375 8.53125 15.61625 8 15 C7.01 15 6.02 15 5 15 C4.505 13.4221875 4.505 13.4221875 4 11.8125 C1.99553634 7.0518988 -1.62110611 5.35718683 -6 3 C-6.99 2.34 -7.98 1.68 -9 1 C-5.62703715 -1.12371735 -3.77622835 -1.25874278 0 0 Z " fill="#C0E1DA" transform="translate(57,4)"/>
<path d="M0 0 C7.19331889 0.0722428 12.83780687 2.91613059 18.125 7.6875 C20.06616707 11.31663843 20.28473857 14.27801895 20.5625 18.375 C19.5725 18.375 18.5825 18.375 17.5625 18.375 C17.5625 16.395 17.5625 14.415 17.5625 12.375 C16.2425 12.375 14.9225 12.375 13.5625 12.375 C13.48 11.59125 13.3975 10.8075 13.3125 10 C12.83443661 7.22750896 12.83443661 7.22750896 10.5 6.0625 C9.860625 5.835625 9.22125 5.60875 8.5625 5.375 C8.5625 4.715 8.5625 4.055 8.5625 3.375 C6.45801062 3.51609986 4.3539123 3.66304175 2.25 3.8125 C1.07824219 3.89371094 -0.09351563 3.97492187 -1.30078125 4.05859375 C-4.46340958 4.2617371 -4.46340958 4.2617371 -7.4375 5.375 C-5.34680246 1.05422509 -4.87794451 0.19785734 0 0 Z " fill="#1E1B1B" transform="translate(42.4375,4.625)"/>
<path d="M0 0 C2 2 2 2 2.3125 4.5 C2.1578125 5.7375 2.1578125 5.7375 2 7 C-1.67346771 9.44897847 -3.66356399 9.31537716 -8 9 C-10 7 -10 7 -10.3125 4.5625 C-10 2 -10 2 -8.9375 0.125 C-5.82785011 -1.68060316 -3.38260527 -0.79952488 0 0 Z " fill="#61947A" transform="translate(44,34)"/>
<path d="M0 0 C3.75 0.125 3.75 0.125 6.5 0.6875 C8.90493756 1.34640353 8.90493756 1.34640353 11.75 0.125 C16.78274337 -0.24779581 19.65672968 0.11524241 23.75 3.125 C24.75 4.125 24.75 4.125 24.8125 6.6875 C24.791875 7.491875 24.77125 8.29625 24.75 9.125 C26.73 9.125 28.71 9.125 30.75 9.125 C30.75 9.455 30.75 9.785 30.75 10.125 C27.25007304 10.92206768 24.0357769 11.24363027 20.44921875 11.22265625 C19.47275391 11.21943359 18.49628906 11.21621094 17.49023438 11.21289062 C16.48283203 11.20451172 15.47542969 11.19613281 14.4375 11.1875 C13.41076172 11.18298828 12.38402344 11.17847656 11.32617188 11.17382812 C8.80072118 11.16208184 6.27539095 11.14565565 3.75 11.125 C3.75 10.795 3.75 10.465 3.75 10.125 C9.69 9.795 15.63 9.465 21.75 9.125 C21.75 7.475 21.75 5.825 21.75 4.125 C18.57804609 2.53902304 15.16441228 3.0645845 11.6875 3.125 C9.03540969 3.17084426 6.40348806 3.1720164 3.75 3.125 C3.42 2.795 3.09 2.465 2.75 2.125 C1.08382885 2.08436168 -0.58388095 2.082279 -2.25 2.125 C-2.435625 3.3315625 -2.435625 3.3315625 -2.625 4.5625 C-2.83125 5.408125 -3.0375 6.25375 -3.25 7.125 C-4.24 7.62 -4.24 7.62 -5.25 8.125 C-5.91 7.465 -6.57 6.805 -7.25 6.125 C-3.72225025 0.14316347 -3.72225025 0.14316347 0 0 Z " fill="#8D5D62" transform="translate(26.25,21.875)"/>
<path d="M0 0 C7.42857143 -0.28571429 7.42857143 -0.28571429 11 2 C9.02 2.99 9.02 2.99 7 4 C7 4.99 7 5.98 7 7 C8.423125 6.9690625 8.423125 6.9690625 9.875 6.9375 C13 7 13 7 15 8 C15 8.99 15 9.98 15 11 C11.37 11 7.74 11 4 11 C3.566875 9.576875 3.566875 9.576875 3.125 8.125 C2.23174891 4.94788422 2.23174891 4.94788422 0 3 C0 2.01 0 1.02 0 0 Z " fill="#C0D7DB" transform="translate(20,53)"/>
<path d="M0 0 C1.32 0 2.64 0 4 0 C4 3.3 4 6.6 4 10 C2.35 10 0.7 10 -1 10 C-1 10.99 -1 11.98 -1 13 C-5.95 12.67 -10.9 12.34 -16 12 C-16 11.67 -16 11.34 -16 11 C-14.96359375 10.79503906 -13.9271875 10.59007813 -12.859375 10.37890625 C-11.48957311 10.10682231 -10.11978201 9.83468404 -8.75 9.5625 C-8.06808594 9.42779297 -7.38617188 9.29308594 -6.68359375 9.15429688 C-3.43530542 8.50779289 -0.20184022 7.84997305 3 7 C2.01 4.69 1.02 2.38 0 0 Z " fill="#B5B9BA" transform="translate(49,54)"/>
<path d="M0 0 C1.9451 2.91765 2.45276317 4.62537285 3 8 C1.35 8 -0.3 8 -2 8 C-2 8.66 -2 9.32 -2 10 C-5.3 10 -8.6 10 -12 10 C-12.66 8.35 -13.32 6.7 -14 5 C-13.01 4.01 -12.02 3.02 -11 2 C-11 3.65 -11 5.3 -11 7 C-7.37 7 -3.74 7 0 7 C0 6.01 0 5.02 0 4 C-0.66 3.67 -1.32 3.34 -2 3 C-1.34 3 -0.68 3 0 3 C0 2.01 0 1.02 0 0 Z " fill="#9B9E9D" transform="translate(35,57)"/>
<path d="M0 0 C3.4375 0.25 3.4375 0.25 7 1 C7.66 1.99 8.32 2.98 9 4 C5.33708062 6.47785723 2.3890815 7.48964169 -2 8 C-1.125 1.125 -1.125 1.125 0 0 Z " fill="#D32532" transform="translate(21,34)"/>
<path d="M0 0 C2.59184839 2.22637035 3.39896254 3.6201552 3.73046875 7.01171875 C3.81103516 7.76904297 3.89160156 8.52636719 3.97460938 9.30664062 C4.04486328 10.09232422 4.11511719 10.87800781 4.1875 11.6875 C4.26935547 12.48478516 4.35121094 13.28207031 4.43554688 14.10351562 C4.63550845 16.067844 4.81932254 18.03380412 5 20 C1.83180047 18.65141812 1.16057091 18.35937299 -0.3125 15.0625 C-1.52930632 10.06830361 -0.67296126 5.02902129 0 0 Z " fill="#E0E6E6" transform="translate(1,38)"/>
<path d="M0 0 C0 0.99 0 1.98 0 3 C-2 5 -2 5 -5.71533203 5.22705078 C-7.31286052 5.22673351 -8.91041027 5.21539982 -10.5078125 5.1953125 C-11.76874222 5.19106766 -11.76874222 5.19106766 -13.05514526 5.18673706 C-15.74524046 5.1755243 -18.4350051 5.15041803 -21.125 5.125 C-22.94660978 5.1149716 -24.76822477 5.10584551 -26.58984375 5.09765625 C-31.06002358 5.07558142 -35.52995571 5.04104434 -40 5 C-40 4.67 -40 4.34 -40 4 C-39.03698975 3.98541748 -38.07397949 3.97083496 -37.08178711 3.95581055 C-33.48262832 3.89750077 -29.88407395 3.82027261 -26.28540039 3.73754883 C-24.73276638 3.70445223 -23.18001647 3.67637349 -21.62719727 3.65356445 C-19.3850806 3.61973476 -17.14401153 3.56741013 -14.90234375 3.51171875 C-14.21663803 3.50532883 -13.53093231 3.4989389 -12.82444763 3.49235535 C-7.83882377 3.34286611 -4.40450332 2.15092004 0 0 Z " fill="#EEF2F2" transform="translate(65,67)"/>
<path d="M0 0 C6.34146341 0.48780488 6.34146341 0.48780488 9.25 2.75 C11.05209055 5.06697357 12.5015384 7.47986003 14 10 C14.66 10.33 15.32 10.66 16 11 C16.33 10.34 16.66 9.68 17 9 C19.64 9.33 22.28 9.66 25 10 C25 10.33 25 10.66 25 11 C21.34554602 11.93251584 17.76669836 12.72239651 14 13 C11.03802274 11.14876421 10.26031089 9.50822602 8.6875 6.4375 C6.30435133 2.99517414 3.90073382 2.39837627 0 1 C0 0.67 0 0.34 0 0 Z " fill="#C4DDD8" transform="translate(6,57)"/>
<path d="M0 0 C3 0.125 3 0.125 4 1.125 C4.04063832 2.79117115 4.042721 4.45888095 4 6.125 C1.36 6.125 -1.28 6.125 -4 6.125 C-4.042721 4.45888095 -4.04063832 2.79117115 -4 1.125 C-3 0.125 -3 0.125 0 0 Z " fill="#5EC17F" transform="translate(40,34.875)"/>
<path d="M0 0 C1.50559539 1.96382007 2.89131683 3.78263366 4 6 C4.66 5.67 5.32 5.34 6 5 C6.36923077 12.38461538 6.36923077 12.38461538 4.5 15.5 C3.7575 16.2425 3.7575 16.2425 3 17 C2.896875 15.741875 2.79375 14.48375 2.6875 13.1875 C2.37063742 9.89913919 2.37063742 9.89913919 0.375 7.375 C-0.07875 6.92125 -0.5325 6.4675 -1 6 C-0.6875 2.8125 -0.6875 2.8125 0 0 Z " fill="#E1EAEC" transform="translate(65,17)"/>
<path d="M0 0 C2.4581046 0.30535461 3.7155418 0.72797314 5.51953125 2.453125 C9.04162485 7.34787743 9.04162485 7.34787743 8.8125 10.9375 C8.544375 11.618125 8.27625 12.29875 8 13 C5.19951635 11.59975817 4.97945497 9.57091086 3.86328125 6.7890625 C2.68826472 4.35396037 1.03131866 2.75113677 -1 1 C-0.67 0.67 -0.34 0.34 0 0 Z " fill="#D3D7DC" transform="translate(56,7)"/>
<path d="M0 0 C1.60379341 -0.05416188 3.20811406 -0.09286638 4.8125 -0.125 C5.70582031 -0.14820312 6.59914063 -0.17140625 7.51953125 -0.1953125 C10 0 10 0 13 2 C10.39295102 4.60704898 8.52661759 4.23905333 4.97265625 4.265625 C3 4 3 4 0 2 C0 1.34 0 0.68 0 0 Z " fill="#DCE8E8" transform="translate(40,1)"/>
<path d="M0 0 C0.33 0.66 0.66 1.32 1 2 C1.99 2 2.98 2 4 2 C3.875 3.875 3.875 3.875 3 6 C-0.01427603 7.40666215 -2.05977053 8.14845728 -5.375 7.625 C-5.91125 7.41875 -6.4475 7.2125 -7 7 C-6.34 7 -5.68 7 -5 7 C-5 6.34 -5 5.68 -5 5 C-3.37446717 3.29319053 -1.70884005 1.62339805 0 0 Z " fill="#D9E2E0" transform="translate(61,63)"/>
<path d="M0 0 C0.02693575 2.12493141 0.04636628 4.24995912 0.0625 6.375 C0.07410156 7.55835938 0.08570313 8.74171875 0.09765625 9.9609375 C0 13 0 13 -1 15 C-2.65 15 -4.3 15 -6 15 C-6 14.01 -6 13.02 -6 12 C-4.35 12 -2.7 12 -1 12 C-1 8.7 -1 5.4 -1 2 C-2.98 2.33 -4.96 2.66 -7 3 C-5.40442685 -0.19114631 -3.35905282 0 0 0 Z " fill="#979D9F" transform="translate(54,52)"/>
<path d="M0 0 C0.33 1.65 0.66 3.3 1 5 C-1.31 5.33 -3.62 5.66 -6 6 C-6.33 4.35 -6.66 2.7 -7 1 C-4.53721199 -0.231394 -2.7204945 -0.07159196 0 0 Z " fill="#E5C496" transform="translate(33,44)"/>
<path d="M0 0 C0.33 1.98 0.66 3.96 1 6 C-1.64 6 -4.28 6 -7 6 C-7 5.01 -7 4.02 -7 3 C-2.77777778 0 -2.77777778 0 0 0 Z " fill="#B5303A" transform="translate(34,54)"/>
<path d="M0 0 C3.07976273 1.12674246 5.12049996 2.77458568 7.5625 4.9375 C6.5725 4.9375 5.5825 4.9375 4.5625 4.9375 C3.139375 4.999375 3.139375 4.999375 1.6875 5.0625 C-1.49448065 4.93522077 -3.57885048 4.28274684 -6.4375 2.9375 C-4.20283752 0.86836807 -3.10432217 -0.079598 0 0 Z " fill="#C7D7D6" transform="translate(54.4375,3.0625)"/>
<path d="M0 0 C-1.44493392 3.73274596 -1.44493392 3.73274596 -3.6875 4.8125 C-6.89104088 5.07224656 -9.84476244 4.54609881 -13 4 C-12.67 3.34 -12.34 2.68 -12 2 C-10.0390625 1.3671875 -10.0390625 1.3671875 -7.625 0.875 C-6.83351563 0.70742187 -6.04203125 0.53984375 -5.2265625 0.3671875 C-3 0 -3 0 0 0 Z " fill="#E7ECEF" transform="translate(35,6)"/>
<path d="M0 0 C0.99 0.66 1.98 1.32 3 2 C2.67 3.32 2.34 4.64 2 6 C2.66 6.33 3.32 6.66 4 7 C3.01 7 2.02 7 1 7 C0.67 9.97 0.34 12.94 0 16 C-0.66 15.67 -1.32 15.34 -2 15 C-2.625 11.9375 -2.625 11.9375 -3 9 C-2.34 8.67 -1.68 8.34 -1 8 C-0.53476937 6.10466658 -0.53476937 6.10466658 -0.375 3.9375 C-0.25125 2.638125 -0.1275 1.33875 0 0 Z " fill="#999D8F" transform="translate(17,36)"/>
<path d="M0 0 C0.598125 0.20625 1.19625 0.4125 1.8125 0.625 C1.4825 1.945 1.1525 3.265 0.8125 4.625 C-0.8375 4.955 -2.4875 5.285 -4.1875 5.625 C-4.5175 4.305 -4.8475 2.985 -5.1875 1.625 C-2.1875 -0.375 -2.1875 -0.375 0 0 Z " fill="#E5C494" transform="translate(48.1875,56.375)"/>
<path d="M0 0 C2.64 0.66 5.28 1.32 8 2 C8 2.66 8 3.32 8 4 C9.32 4 10.64 4 12 4 C12 6.31 12 8.62 12 11 C11.67 11 11.34 11 11 11 C11 9.02 11 7.04 11 5 C10.01 6.485 10.01 6.485 9 8 C7.49712782 6.85793642 5.99776716 5.71125043 4.5 4.5625 C3.6646875 3.92441406 2.829375 3.28632813 1.96875 2.62890625 C1.3190625 2.09136719 0.669375 1.55382812 0 1 C0 0.67 0 0.34 0 0 Z " fill="#A78B83" transform="translate(48,13)"/>
<path d="M0 0 C0.99 0.33 1.98 0.66 3 1 C3.33 2.65 3.66 4.3 4 6 C1.69 6 -0.62 6 -3 6 C-1.125 1.125 -1.125 1.125 0 0 Z " fill="#B62C37" transform="translate(47,47)"/>
<path d="M0 0 C1.32 0 2.64 0 4 0 C4 3.3 4 6.6 4 10 C2.02 10 0.04 10 -2 10 C-0.625 8.5 -0.625 8.5 1 7 C1.66 7 2.32 7 3 7 C2.01 4.69 1.02 2.38 0 0 Z " fill="#BDD6DA" transform="translate(49,54)"/>
<path d="M0 0 C0.33 1.32 0.66 2.64 1 4 C-2.96 3.67 -6.92 3.34 -11 3 C-10.67 2.34 -10.34 1.68 -10 1 C-2.25 0.875 -2.25 0.875 0 2 C0 1.34 0 0.68 0 0 Z " fill="#BDBEAD" transform="translate(17,52)"/>
<path d="M0 0 C0 0.33 0 0.66 0 1 C-0.94875 1.309375 -1.8975 1.61875 -2.875 1.9375 C-5.86080408 2.87394742 -5.86080408 2.87394742 -8 4 C-8.33 3.34 -8.66 2.68 -9 2 C-9.99 1.34 -10.98 0.68 -12 0 C-7.224647 -1.68541871 -4.55270882 -2.48329572 0 0 Z " fill="#D4E0E0" transform="translate(43,4)"/>
<path d="M0 0 C1.37478516 0.01740234 1.37478516 0.01740234 2.77734375 0.03515625 C3.69644531 0.04417969 4.61554687 0.05320312 5.5625 0.0625 C6.27277344 0.07410156 6.98304687 0.08570313 7.71484375 0.09765625 C7.71484375 0.42765625 7.71484375 0.75765625 7.71484375 1.09765625 C6.06484375 1.42765625 4.41484375 1.75765625 2.71484375 2.09765625 C2.71484375 2.42765625 2.71484375 2.75765625 2.71484375 3.09765625 C0.07484375 3.75765625 -2.56515625 4.41765625 -5.28515625 5.09765625 C-2.87806166 0.12299409 -2.87806166 0.12299409 0 0 Z " fill="#434243" transform="translate(40.28515625,4.90234375)"/>
<path d="M0 0 C2.0625 0.4375 2.0625 0.4375 4 1 C3.01 1.33 2.02 1.66 1 2 C0.26676204 4.01508358 0.26676204 4.01508358 0 6 C1.65 5.67 3.3 5.34 5 5 C4.67 5.66 4.34 6.32 4 7 C0.9375 7.625 0.9375 7.625 -2 8 C-1.125 1.125 -1.125 1.125 0 0 Z " fill="#8F3D41" transform="translate(21,34)"/>
<path d="M0 0 C0 1.98 0 3.96 0 6 C-1.32 6 -2.64 6 -4 6 C-4 4.35 -4 2.7 -4 1 C-2 0 -2 0 0 0 Z " fill="#E7C696" transform="translate(58,35)"/>
<path d="M0 0 C1.32 0 2.64 0 4 0 C4 0.99 4 1.98 4 3 C4.99 3.33 5.98 3.66 7 4 C3.37673261 5.2077558 2.35853631 4.54311128 -1 3 C-0.67 2.01 -0.34 1.02 0 0 Z " fill="#7B917E" transform="translate(17,29)"/>
<path d="M0 0 C0.33 0 0.66 0 1 0 C1 1.65 1 3.3 1 5 C1.66 5 2.32 5 3 5 C3 5.66 3 6.32 3 7 C3.66 7 4.32 7 5 7 C5 7.99 5 8.98 5 10 C3.68 9.67 2.36 9.34 1 9 C0.67 6.03 0.34 3.06 0 0 Z " fill="#898C8B" transform="translate(50,41)"/>
<path d="M0 0 C0.99 0 1.98 0 3 0 C3.33 1.98 3.66 3.96 4 6 C3.01 6 2.02 6 1 6 C0.67 4.02 0.34 2.04 0 0 Z " fill="#DBDFE3" transform="translate(61,13)"/>
<path d="M0 0 C1.9451 2.91765 2.45276317 4.62537285 3 8 C1.35 8 -0.3 8 -2 8 C-1.34 7.67 -0.68 7.34 0 7 C0 6.01 0 5.02 0 4 C-0.66 3.67 -1.32 3.34 -2 3 C-1.34 3 -0.68 3 0 3 C0 2.01 0 1.02 0 0 Z " fill="#8C9498" transform="translate(35,57)"/>
</svg>
